<svg xmlns="http://www.w3.org/2000/svg" width="48" height="48" viewBox="0 0 48 48" fill="none" stroke="currentColor" stroke-width="4" stroke-linecap="round" stroke-linejoin="round">
  <title>walking-person</title>
  <path id="head" d="M25 4A5 5 0 0 1 30 9A5 5 0 0 1 25 14A5 5 0 0 1 20 9A5 5 0 0 1 25 4Z"/>
  <path id="torso" d="M25 22L25 24"/>
  <path id="torso-lean" d="M25 24L21 32"/>
  <path id="arm-front" d="M25 24L33 29L40 26"/>
  <path id="arm-back" d="M25 24L16 28L8 32"/>
  <path id="leg-front" d="M21 32L28 38L30 44"/>
  <path id="leg-back" d="M21 32L17 39L12 44"/>
</svg>
