<svg xmlns="http://www.w3.org/2000/svg" width="48" height="48" viewBox="0 0 48 48">
<rect width="100%" height="100%" fill="white"/>
<path d="M4 24A20 20 0 0 1 24 4A20 20 0 0 1 44 24A20 20 0 0 1 24 44A20 20 0 0 1 4 24Z" fill="none" stroke="#cbd5e1" stroke-width="4" stroke-linecap="round" stroke-linejoin="round"/>
<path d="M17 19L14 19" fill="none" stroke="#cbd5e1" stroke-width="4" stroke-linecap="round" stroke-linejoin="round"/>
<path d="M17 19L20 19" fill="none" stroke="#cbd5e1" stroke-width="4" stroke-linecap="round" stroke-linejoin="round"/>
<path d="M17 19L17 16" fill="none" stroke="#cbd5e1" stroke-width="4" stroke-linecap="round" stroke-linejoin="round"/>
<path d="M17 19L17 22" fill="none" stroke="#cbd5e1" stroke-width="4" stroke-linecap="round" stroke-linejoin="round"/>
<path d="M31 19L28 19" fill="none" stroke="#cbd5e1" stroke-width="4" stroke-linecap="round" stroke-linejoin="round"/>
<path d="M31 19L34 19" fill="none" stroke="#cbd5e1" stroke-width="4" stroke-linecap="round" stroke-linejoin="round"/>
<path d="M31 19L31 16" fill="none" stroke="#cbd5e1" stroke-width="4" stroke-linecap="round" stroke-linejoin="round"/>
<path d="M31 19L31 22" fill="none" stroke="#cbd5e1" stroke-width="4" stroke-linecap="round" stroke-linejoin="round"/>
<path d="M17 31C21 35 27 35 31 31" fill="none" stroke="#cbd5e1" stroke-width="4" stroke-linecap="round" stroke-linejoin="round"/>
</svg>