<svg xmlns="http://www.w3.org/2000/svg" width="48" height="48" viewBox="0 0 48 48" fill="none" stroke="currentColor" stroke-width="4" stroke-linecap="round" stroke-linejoin="round">
  <title>crested-penguin-fit-vrect-l</title>
  <path id="body" d="M16 11A13 13 0 0 1 24 8A13 13 0 0 1 32 11L34 22A15 15 0 0 1 40 31L34 28L34 34A10 8 0 0 1 24 43A10 8 0 0 1 14 34L14 28L8 31A15 15 0 0 1 14 22L16 11Z"/>
  <path id="crest-left" d="M16 11A12 12 0 0 0 8 5"/>
  <path id="crest-right" d="M32 11A12 12 0 0 1 40 5"/>
  <path id="beak" d="M21 25L24 28L27 25"/>
  <path id="eye-left" d="M21 18L21 18"/>
  <path id="eye-right" d="M27 18L27 18"/>
</svg>
