<svg xmlns="http://www.w3.org/2000/svg" width="48" height="48" viewBox="0 0 48 48" fill="none" stroke="currentColor" stroke-width="4" stroke-linecap="round" stroke-linejoin="round">
  <title>steampunk-skull-ornament-fit-square</title>
  <path id="outline" d="M19 6L32 6A10 10 0 0 1 42 16L42 28A7 7 0 0 1 35 35L35 42L17 42L17 35A7 7 0 0 1 11 28L11 14A8 8 0 0 1 19 6Z"/>
  <path id="band" d="M6 11L6 16L42 16"/>
  <path id="eye-left" d="M17 25A2 2 0 0 1 22 25A2 2 0 0 1 17 25Z"/>
  <path id="eye-right" d="M31 25A2 2 0 0 1 36 25A2 2 0 0 1 31 25Z"/>
  <path id="nose" d="M24 34L26 31L29 34"/>
  <path id="tooth-left" d="M23 39L23 42"/>
  <path id="tooth-right" d="M30 39L30 42"/>
</svg>
