<svg xmlns="http://www.w3.org/2000/svg" width="48" height="48" viewBox="0 0 48 48">
<rect width="100%" height="100%" fill="white"/>
<path d="M 6 37 A 5 5 0 0 1 16 37 A 5 5 0 0 1 6 37 Z" fill="none" stroke="#2563eb" stroke-width="4" stroke-linecap="round" stroke-linejoin="round"/>
<path d="M 9 6 A 34 34 0 0 1 33 17 A 34 34 0 0 1 42 40" fill="none" stroke="#9333ea" stroke-width="4" stroke-linecap="round" stroke-linejoin="round"/>
<path d="M 9 19 A 21 21 0 0 1 29 40" fill="none" stroke="#087f5b" stroke-width="4" stroke-linecap="round" stroke-linejoin="round"/>
<path d="M14.535533905932738 33.46446609406726L32.01279756668155 15.969059924903448" stroke="#087f5b" stroke-width="0.5" stroke-dasharray="1 1"/>
<circle cx="14.535533905932738" cy="33.46446609406726" r="0.65" fill="white" stroke="#087f5b" stroke-width="0.35"/>
<circle cx="32.01279756668155" cy="15.969059924903448" r="0.65" fill="white" stroke="#087f5b" stroke-width="0.35"/>
<path d="M14.535533905932738 33.46446609406726L22.915084059751567 25.193521750219844" stroke="#087f5b" stroke-width="0.5" stroke-dasharray="1 1"/>
<circle cx="14.535533905932738" cy="33.46446609406726" r="0.65" fill="white" stroke="#087f5b" stroke-width="0.35"/>
<circle cx="22.915084059751567" cy="25.193521750219844" r="0.65" fill="white" stroke="#087f5b" stroke-width="0.35"/>
<path d="M32.8694859193209 16.85949094028472L23.378296372983836 25.675533697252238" stroke="#087f5b" stroke-width="0.5" stroke-dasharray="1 1"/>
<circle cx="32.8694859193209" cy="16.85949094028472" r="0.65" fill="white" stroke="#087f5b" stroke-width="0.35"/>
<circle cx="23.378296372983836" cy="25.675533697252238" r="0.65" fill="white" stroke="#087f5b" stroke-width="0.35"/>
</svg>