<svg xmlns="http://www.w3.org/2000/svg" width="48" height="48" viewBox="0 0 48 48">
<rect width="100%" height="100%" fill="white"/>
<path d="M 21 34 C 17 32 14 31 11 31 C 8 31 6 33 6 36 C 6 40 9 42 12 42 L 16 42 C 19 42 20 38 21 34 Z" fill="none" stroke="#2563eb" stroke-width="4" stroke-linecap="round" stroke-linejoin="round"/>
<path d="M 21 34 L 34 6" fill="none" stroke="#2563eb" stroke-width="4" stroke-linecap="round" stroke-linejoin="round"/>
<path d="M 36 30 A 6 6 0 0 1 42 36 A 6 6 0 0 1 36 42 A 6 6 0 0 1 30 36 A 6 6 0 0 1 36 30 Z" fill="none" stroke="#9333ea" stroke-width="4" stroke-linecap="round" stroke-linejoin="round"/>
<path d="M22.91409777631119 29.877327866406667L30.57606424125934 33.43466943941831" stroke="#087f5b" stroke-width="0.5" stroke-dasharray="1 1"/>
<circle cx="22.91409777631119" cy="29.877327866406667" r="0.65" fill="white" stroke="#087f5b" stroke-width="0.35"/>
<circle cx="30.57606424125934" cy="33.43466943941831" r="0.65" fill="white" stroke="#087f5b" stroke-width="0.35"/>
</svg>