<svg xmlns="http://www.w3.org/2000/svg" width="64" height="64" viewBox="0 0 64 64">
  
  
  <g id="main-icon-clipped" stroke="#000000" stroke-width="4" fill="none" stroke-linecap="round" stroke-linejoin="round">
    <path d="M8.00,4.00L36.00,4.00 M36.00,4.00L36.31,4.01 M36.31,4.01L36.63,4.05 M36.63,4.05L36.93,4.11 M36.93,4.11L37.24,4.20 M37.24,4.20L37.53,4.30 M37.53,4.30L37.82,4.44 M37.82,4.44L38.09,4.59 M38.09,4.59L38.35,4.76 M38.35,4.76L38.60,4.96 M38.60,4.96L38.83,5.17 M38.83,5.17L39.04,5.40 M39.04,5.40L39.24,5.65 M39.24,5.65L39.41,5.91 M39.41,5.91L39.56,6.18 M39.56,6.18L39.70,6.47 M39.70,6.47L39.80,6.76 M39.80,6.76L39.89,7.07 M39.89,7.07L39.95,7.37 M39.95,7.37L39.99,7.69 M39.99,7.69L40.00,8.00 M40.00,8.00L40.00,28.08 M28.95,40.00L8.00,40.00 M8.00,40.00L7.69,39.99 M7.69,39.99L7.37,39.95 M7.37,39.95L7.07,39.89 M7.07,39.89L6.76,39.80 M6.76,39.80L6.47,39.70 M6.47,39.70L6.18,39.56 M6.18,39.56L5.91,39.41 M5.91,39.41L5.65,39.24 M5.65,39.24L5.40,39.04 M5.40,39.04L5.17,38.83 M5.17,38.83L4.96,38.60 M4.96,38.60L4.76,38.35 M4.76,38.35L4.59,38.09 M4.59,38.09L4.44,37.82 M4.44,37.82L4.30,37.53 M4.30,37.53L4.20,37.24 M4.20,37.24L4.11,36.93 M4.11,36.93L4.05,36.63 M4.05,36.63L4.01,36.31 M4.01,36.31L4.00,36.00 M4.00,36.00L4.00,8.00 M4.00,8.00L4.01,7.69 M4.01,7.69L4.05,7.37 M4.05,7.37L4.11,7.07 M4.11,7.07L4.20,6.76 M4.20,6.76L4.30,6.47 M4.30,6.47L4.44,6.18 M4.44,6.18L4.59,5.91 M4.59,5.91L4.76,5.65 M4.76,5.65L4.96,5.40 M4.96,5.40L5.17,5.17 M5.17,5.17L5.40,4.96 M5.40,4.96L5.65,4.76 M5.65,4.76L5.91,4.59 M5.91,4.59L6.18,4.44 M6.18,4.44L6.47,4.30 M6.47,4.30L6.76,4.20 M6.76,4.20L7.07,4.11 M7.07,4.11L7.37,4.05 M7.37,4.05L7.69,4.01 M7.69,4.01L8.00,4.00 M26.00,13.00L18.00,13.00 M18.00,13.00L17.43,13.07 M17.43,13.07L16.92,13.25 M16.92,13.25L16.47,13.55 M16.47,13.55L16.08,13.94 M16.08,13.94L15.75,14.41 M15.75,14.41L15.48,14.94 M15.48,14.94L15.27,15.54 M15.27,15.54L15.12,16.17 M15.12,16.17L15.03,16.83 M15.03,16.83L15.00,17.50 M15.00,17.50L15.03,18.17 M15.03,18.17L15.12,18.83 M15.12,18.83L15.27,19.46 M15.27,19.46L15.48,20.06 M15.48,20.06L15.75,20.59 M15.75,20.59L16.08,21.06 M16.08,21.06L16.47,21.45 M16.47,21.45L16.92,21.75 M16.92,21.75L17.43,21.93 M17.43,21.93L18.00,22.00 M18.00,22.00L26.00,22.00 M26.00,22.00L26.57,22.07 M26.57,22.07L27.08,22.25 M27.08,22.25L27.53,22.55 M27.53,22.55L27.92,22.94 M27.92,22.94L28.25,23.41 M28.25,23.41L28.52,23.94 M28.52,23.94L28.73,24.54 M28.73,24.54L28.88,25.17 M28.88,25.17L28.97,25.83 M28.97,25.83L29.00,26.50 M29.00,26.50L28.97,27.17 M28.97,27.17L28.88,27.83 M28.88,27.83L28.73,28.46 M28.73,28.46L28.52,29.06 M28.52,29.06L28.25,29.59 M28.25,29.59L27.92,30.06 M27.92,30.06L27.53,30.45 M27.53,30.45L27.08,30.75 M27.08,30.75L26.57,30.93 M26.57,30.93L26.00,31.00 M26.00,31.00L18.00,31.00 M8.00,4.00L36.00,4.00 M36.00,4.00L36.31,4.01 M36.31,4.01L36.63,4.05 M36.63,4.05L36.93,4.11 M36.93,4.11L37.24,4.20 M37.24,4.20L37.53,4.30 M37.53,4.30L37.82,4.44 M37.82,4.44L38.09,4.59 M38.09,4.59L38.35,4.76 M38.35,4.76L38.60,4.96 M38.60,4.96L38.83,5.17 M38.83,5.17L39.04,5.40 M39.04,5.40L39.24,5.65 M39.24,5.65L39.41,5.91 M39.41,5.91L39.56,6.18 M39.56,6.18L39.70,6.47 M39.70,6.47L39.80,6.76 M39.80,6.76L39.89,7.07 M39.89,7.07L39.95,7.37 M39.95,7.37L39.99,7.69 M39.99,7.69L40.00,8.00 M40.00,8.00L40.00,28.08 M28.95,40.00L8.00,40.00 M8.00,40.00L7.69,39.99 M7.69,39.99L7.37,39.95 M7.37,39.95L7.07,39.89 M7.07,39.89L6.76,39.80 M6.76,39.80L6.47,39.70 M6.47,39.70L6.18,39.56 M6.18,39.56L5.91,39.41 M5.91,39.41L5.65,39.24 M5.65,39.24L5.40,39.04 M5.40,39.04L5.17,38.83 M5.17,38.83L4.96,38.60 M4.96,38.60L4.76,38.35 M4.76,38.35L4.59,38.09 M4.59,38.09L4.44,37.82 M4.44,37.82L4.30,37.53 M4.30,37.53L4.20,37.24 M4.20,37.24L4.11,36.93 M4.11,36.93L4.05,36.63 M4.05,36.63L4.01,36.31 M4.01,36.31L4.00,36.00 M4.00,36.00L4.00,8.00 M4.00,8.00L4.01,7.69 M4.01,7.69L4.05,7.37 M4.05,7.37L4.11,7.07 M4.11,7.07L4.20,6.76 M4.20,6.76L4.30,6.47 M4.30,6.47L4.44,6.18 M4.44,6.18L4.59,5.91 M4.59,5.91L4.76,5.65 M4.76,5.65L4.96,5.40 M4.96,5.40L5.17,5.17 M5.17,5.17L5.40,4.96 M5.40,4.96L5.65,4.76 M5.65,4.76L5.91,4.59 M5.91,4.59L6.18,4.44 M6.18,4.44L6.47,4.30 M6.47,4.30L6.76,4.20 M6.76,4.20L7.07,4.11 M7.07,4.11L7.37,4.05 M7.37,4.05L7.69,4.01 M7.69,4.01L8.00,4.00 M26.00,13.00L18.00,13.00 M18.00,13.00L17.43,13.07 M17.43,13.07L16.92,13.25 M16.92,13.25L16.47,13.55 M16.47,13.55L16.08,13.94 M16.08,13.94L15.75,14.41 M15.75,14.41L15.48,14.94 M15.48,14.94L15.27,15.54 M15.27,15.54L15.12,16.17 M15.12,16.17L15.03,16.83 M15.03,16.83L15.00,17.50 M15.00,17.50L15.03,18.17 M15.03,18.17L15.12,18.83 M15.12,18.83L15.27,19.46 M15.27,19.46L15.48,20.06 M15.48,20.06L15.75,20.59 M15.75,20.59L16.08,21.06 M16.08,21.06L16.47,21.45 M16.47,21.45L16.92,21.75 M16.92,21.75L17.43,21.93 M17.43,21.93L18.00,22.00 M18.00,22.00L26.00,22.00 M26.00,22.00L26.57,22.07 M26.57,22.07L27.08,22.25 M27.08,22.25L27.53,22.55 M27.53,22.55L27.92,22.94 M27.92,22.94L28.25,23.41 M28.25,23.41L28.52,23.94 M28.52,23.94L28.73,24.54 M28.73,24.54L28.88,25.17 M28.88,25.17L28.97,25.83 M28.97,25.83L29.00,26.50 M29.00,26.50L28.97,27.17 M28.97,27.17L28.88,27.83 M28.88,27.83L28.73,28.46 M28.73,28.46L28.52,29.06 M28.52,29.06L28.25,29.59 M28.25,29.59L27.92,30.06 M27.92,30.06L27.53,30.45 M27.53,30.45L27.08,30.75 M27.08,30.75L26.57,30.93 M26.57,30.93L26.00,31.00 M26.00,31.00L18.00,31.00" />
  </g>
  
  
  <g fill="none" stroke="currentColor" stroke-width="4.0" stroke-linecap="round" stroke-linejoin="round" id="state-icon" transform="translate(32 30) scale(1)"><path id="sub-source-right" d="M13 17L13 6A4 4 0 0 1 21 6L21 14C26 14 28 18 28 22L28 30" />
  <path id="sub-source-left" d="M13 17L9 13C6 10 4 12 4 15C4 17 5 18 7 20L15 30" />
</g></svg>